<svg width="82" height="83" viewBox="0 0 82 83" fill="none" xmlns="http://www.w3.org/2000/svg">
<path d="M26.6499 6.91699H55.3499C66.2833 6.91699 75.1666 15.9087 75.1666 26.9753V56.0253C75.1666 61.3451 73.0788 66.447 69.3624 70.2087C65.6461 73.9704 60.6056 76.0837 55.3499 76.0837H26.6499C15.7166 76.0837 6.83325 67.092 6.83325 56.0253V26.9753C6.83325 21.6555 8.92107 16.5536 12.6374 12.7919C16.3538 9.03028 21.3942 6.91699 26.6499 6.91699ZM25.9666 13.8337C22.7044 13.8337 19.5759 15.1454 17.2692 17.4802C14.9625 19.815 13.6666 22.9817 13.6666 26.2837V56.717C13.6666 63.5991 19.1674 69.167 25.9666 69.167H56.0333C59.2954 69.167 62.424 67.8553 64.7307 65.5205C67.0374 63.1856 68.3333 60.0189 68.3333 56.717V26.2837C68.3333 19.4016 62.8324 13.8337 56.0333 13.8337H25.9666ZM58.9374 19.0212C60.0701 19.0212 61.1564 19.4766 61.9574 20.2873C62.7583 21.098 63.2083 22.1976 63.2083 23.3441C63.2083 24.4906 62.7583 25.5901 61.9574 26.4008C61.1564 27.2115 60.0701 27.667 58.9374 27.667C57.8047 27.667 56.7184 27.2115 55.9175 26.4008C55.1165 25.5901 54.6666 24.4906 54.6666 23.3441C54.6666 22.1976 55.1165 21.098 55.9175 20.2873C56.7184 19.4766 57.8047 19.0212 58.9374 19.0212ZM40.9999 24.2087C45.5307 24.2087 49.8759 26.0305 53.0797 29.2733C56.2834 32.5161 58.0833 36.9143 58.0833 41.5003C58.0833 46.0864 56.2834 50.4846 53.0797 53.7274C49.8759 56.9702 45.5307 58.792 40.9999 58.792C36.4691 58.792 32.1239 56.9702 28.9202 53.7274C25.7164 50.4846 23.9166 46.0864 23.9166 41.5003C23.9166 36.9143 25.7164 32.5161 28.9202 29.2733C32.1239 26.0305 36.4691 24.2087 40.9999 24.2087ZM40.9999 31.1253C38.2815 31.1253 35.6743 32.2184 33.7521 34.1641C31.8298 36.1098 30.7499 38.7487 30.7499 41.5003C30.7499 44.2519 31.8298 46.8909 33.7521 48.8366C35.6743 50.7822 38.2815 51.8753 40.9999 51.8753C43.7184 51.8753 46.3255 50.7822 48.2478 48.8366C50.17 46.8909 51.2499 44.2519 51.2499 41.5003C51.2499 38.7487 50.17 36.1098 48.2478 34.1641C46.3255 32.2184 43.7184 31.1253 40.9999 31.1253Z" fill="#53B39C"/>
</svg>
