<svg width="82" height="82" viewBox="0 0 82 82" fill="none" xmlns="http://www.w3.org/2000/svg">
<path d="M34.1666 51.2497L51.8991 40.9997L34.1666 30.7497V51.2497ZM73.6633 24.4972C74.1074 26.103 74.4149 28.2555 74.6199 30.9888C74.8591 33.7222 74.9616 36.0797 74.9616 38.1297L75.1666 40.9997C75.1666 48.4822 74.6199 53.983 73.6633 57.5022C72.8091 60.5772 70.8274 62.5588 67.7524 63.413C66.1466 63.8572 63.2083 64.1647 58.6983 64.3697C54.2566 64.6088 50.1908 64.7113 46.4324 64.7113L40.9999 64.9163C26.6841 64.9163 17.7666 64.3697 14.2474 63.413C11.1724 62.5588 9.19075 60.5772 8.33659 57.5022C7.89242 55.8963 7.58492 53.7438 7.37992 51.0105C7.14075 48.2772 7.03825 45.9197 7.03825 43.8697L6.83325 40.9997C6.83325 33.5172 7.37992 28.0163 8.33659 24.4972C9.19075 21.4222 11.1724 19.4405 14.2474 18.5863C15.8533 18.1422 18.7916 17.8347 23.3016 17.6297C27.7433 17.3905 31.8091 17.288 35.5674 17.288L40.9999 17.083C55.3158 17.083 64.2333 17.6297 67.7524 18.5863C70.8274 19.4405 72.8091 21.4222 73.6633 24.4972Z" fill="#53B39C"/>
</svg>
